<mxfile host="app.diagrams.net" modified="2023-12-23T09:45:26.953Z" agent="Mozilla/5.0 (Windows NT 10.0; Win64; x64) AppleWebKit/537.36 (KHTML, like Gecko) Chrome/120.0.0.0 Safari/537.36" etag="_SHdSdotdFXJ4liM-qoI" version="22.1.11" type="device">
  <diagram id="C5RBs43oDa-KdzZeNtuy" name="Page-1">
    <mxGraphModel dx="1434" dy="738" grid="1" gridSize="10" guides="1" tooltips="1" connect="1" arrows="1" fold="1" page="1" pageScale="1" pageWidth="827" pageHeight="1169" math="0" shadow="0">
      <root>
        <mxCell id="WIyWlLk6GJQsqaUBKTNV-0" />
        <mxCell id="WIyWlLk6GJQsqaUBKTNV-1" parent="WIyWlLk6GJQsqaUBKTNV-0" />
        <mxCell id="zAt50XMLLe7vNtjMuCPo-1" value="abstract&amp;nbsp; Creator" style="swimlane;fontStyle=1;align=center;verticalAlign=top;childLayout=stackLayout;horizontal=1;startSize=26;horizontalStack=0;resizeParent=1;resizeParentMax=0;resizeLast=0;collapsible=1;marginBottom=0;whiteSpace=wrap;html=1;" vertex="1" collapsed="1" parent="WIyWlLk6GJQsqaUBKTNV-1">
          <mxGeometry x="494" y="50" width="140" height="30" as="geometry">
            <mxRectangle x="330" y="290" width="160" height="34" as="alternateBounds" />
          </mxGeometry>
        </mxCell>
        <mxCell id="zAt50XMLLe7vNtjMuCPo-3" value="" style="line;strokeWidth=1;fillColor=none;align=left;verticalAlign=middle;spacingTop=-1;spacingLeft=3;spacingRight=3;rotatable=0;labelPosition=right;points=[];portConstraint=eastwest;strokeColor=inherit;" vertex="1" parent="zAt50XMLLe7vNtjMuCPo-1">
          <mxGeometry y="26" width="160" height="8" as="geometry" />
        </mxCell>
        <mxCell id="zAt50XMLLe7vNtjMuCPo-5" value="abstract Message" style="swimlane;fontStyle=0;childLayout=stackLayout;horizontal=1;startSize=26;fillColor=none;horizontalStack=0;resizeParent=1;resizeParentMax=0;resizeLast=0;collapsible=1;marginBottom=0;whiteSpace=wrap;html=1;" vertex="1" collapsed="1" parent="WIyWlLk6GJQsqaUBKTNV-1">
          <mxGeometry x="144" y="60" width="180" height="30" as="geometry">
            <mxRectangle x="90" y="330" width="160" height="52" as="alternateBounds" />
          </mxGeometry>
        </mxCell>
        <mxCell id="zAt50XMLLe7vNtjMuCPo-9" value="TextMessage" style="swimlane;fontStyle=0;childLayout=stackLayout;horizontal=1;startSize=20;fillColor=none;horizontalStack=0;resizeParent=1;resizeParentMax=0;resizeLast=0;collapsible=1;marginBottom=0;whiteSpace=wrap;html=1;" vertex="1" parent="WIyWlLk6GJQsqaUBKTNV-1">
          <mxGeometry x="94" y="260" width="140" height="52" as="geometry" />
        </mxCell>
        <mxCell id="zAt50XMLLe7vNtjMuCPo-13" value="JSONMessageCreator" style="swimlane;fontStyle=0;childLayout=stackLayout;horizontal=1;startSize=26;fillColor=none;horizontalStack=0;resizeParent=1;resizeParentMax=0;resizeLast=0;collapsible=1;marginBottom=0;whiteSpace=wrap;html=1;" vertex="1" parent="WIyWlLk6GJQsqaUBKTNV-1">
          <mxGeometry x="444" y="260" width="140" height="52" as="geometry" />
        </mxCell>
        <mxCell id="zAt50XMLLe7vNtjMuCPo-14" value="JsonMessage" style="swimlane;fontStyle=0;childLayout=stackLayout;horizontal=1;startSize=26;fillColor=none;horizontalStack=0;resizeParent=1;resizeParentMax=0;resizeLast=0;collapsible=1;marginBottom=0;whiteSpace=wrap;html=1;" vertex="1" parent="WIyWlLk6GJQsqaUBKTNV-1">
          <mxGeometry x="264" y="260" width="140" height="52" as="geometry" />
        </mxCell>
        <mxCell id="zAt50XMLLe7vNtjMuCPo-15" value="TextMessageCreator" style="swimlane;fontStyle=0;childLayout=stackLayout;horizontal=1;startSize=26;fillColor=none;horizontalStack=0;resizeParent=1;resizeParentMax=0;resizeLast=0;collapsible=1;marginBottom=0;whiteSpace=wrap;html=1;" vertex="1" parent="WIyWlLk6GJQsqaUBKTNV-1">
          <mxGeometry x="594" y="260" width="140" height="52" as="geometry" />
        </mxCell>
        <mxCell id="zAt50XMLLe7vNtjMuCPo-16" value="Extends" style="endArrow=block;endSize=16;endFill=0;html=1;rounded=0;entryX=0.5;entryY=1;entryDx=0;entryDy=0;exitX=0.5;exitY=0;exitDx=0;exitDy=0;" edge="1" parent="WIyWlLk6GJQsqaUBKTNV-1" source="zAt50XMLLe7vNtjMuCPo-9" target="zAt50XMLLe7vNtjMuCPo-5">
          <mxGeometry width="160" relative="1" as="geometry">
            <mxPoint x="384" y="10" as="sourcePoint" />
            <mxPoint x="544" y="10" as="targetPoint" />
          </mxGeometry>
        </mxCell>
        <mxCell id="zAt50XMLLe7vNtjMuCPo-17" value="Extends" style="endArrow=block;endSize=16;endFill=0;html=1;rounded=0;entryX=0.5;entryY=1;entryDx=0;entryDy=0;exitX=0.5;exitY=0;exitDx=0;exitDy=0;" edge="1" parent="WIyWlLk6GJQsqaUBKTNV-1" source="zAt50XMLLe7vNtjMuCPo-14" target="zAt50XMLLe7vNtjMuCPo-5">
          <mxGeometry width="160" relative="1" as="geometry">
            <mxPoint x="174" y="270" as="sourcePoint" />
            <mxPoint x="234" y="122" as="targetPoint" />
          </mxGeometry>
        </mxCell>
        <mxCell id="zAt50XMLLe7vNtjMuCPo-18" value="Extends" style="endArrow=block;endSize=16;endFill=0;html=1;rounded=0;entryX=0.5;entryY=1;entryDx=0;entryDy=0;exitX=0.5;exitY=0;exitDx=0;exitDy=0;" edge="1" parent="WIyWlLk6GJQsqaUBKTNV-1" source="zAt50XMLLe7vNtjMuCPo-13" target="zAt50XMLLe7vNtjMuCPo-1">
          <mxGeometry width="160" relative="1" as="geometry">
            <mxPoint x="344" y="270" as="sourcePoint" />
            <mxPoint x="234" y="122" as="targetPoint" />
          </mxGeometry>
        </mxCell>
        <mxCell id="zAt50XMLLe7vNtjMuCPo-19" value="Extends" style="endArrow=block;endSize=16;endFill=0;html=1;rounded=0;entryX=0.5;entryY=1;entryDx=0;entryDy=0;exitX=0.5;exitY=0;exitDx=0;exitDy=0;" edge="1" parent="WIyWlLk6GJQsqaUBKTNV-1" source="zAt50XMLLe7vNtjMuCPo-15" target="zAt50XMLLe7vNtjMuCPo-1">
          <mxGeometry width="160" relative="1" as="geometry">
            <mxPoint x="524" y="270" as="sourcePoint" />
            <mxPoint x="574" y="90" as="targetPoint" />
          </mxGeometry>
        </mxCell>
        <mxCell id="zAt50XMLLe7vNtjMuCPo-20" value="" style="html=1;verticalAlign=bottom;endArrow=open;dashed=1;endSize=8;curved=0;rounded=0;exitX=0.5;exitY=1;exitDx=0;exitDy=0;entryX=0.5;entryY=1;entryDx=0;entryDy=0;" edge="1" parent="WIyWlLk6GJQsqaUBKTNV-1" source="zAt50XMLLe7vNtjMuCPo-13" target="zAt50XMLLe7vNtjMuCPo-14">
          <mxGeometry relative="1" as="geometry">
            <mxPoint x="540" y="400" as="sourcePoint" />
            <mxPoint x="460" y="400" as="targetPoint" />
            <Array as="points">
              <mxPoint x="514" y="370" />
              <mxPoint x="334" y="370" />
            </Array>
          </mxGeometry>
        </mxCell>
        <mxCell id="zAt50XMLLe7vNtjMuCPo-21" value="" style="html=1;verticalAlign=bottom;endArrow=open;dashed=1;endSize=8;curved=0;rounded=0;exitX=0.5;exitY=1;exitDx=0;exitDy=0;entryX=0.5;entryY=1;entryDx=0;entryDy=0;" edge="1" parent="WIyWlLk6GJQsqaUBKTNV-1" source="zAt50XMLLe7vNtjMuCPo-15" target="zAt50XMLLe7vNtjMuCPo-9">
          <mxGeometry relative="1" as="geometry">
            <mxPoint x="410" y="480" as="sourcePoint" />
            <mxPoint x="330" y="480" as="targetPoint" />
            <Array as="points">
              <mxPoint x="664" y="410" />
              <mxPoint x="164" y="410" />
            </Array>
          </mxGeometry>
        </mxCell>
      </root>
    </mxGraphModel>
  </diagram>
</mxfile>
